<svg width="23" height="22" viewBox="0 0 23 22" fill="none" xmlns="http://www.w3.org/2000/svg">
<path d="M11.0024 0C4.9368 0 0.00244141 4.93436 0.00244141 11C0.00244141 17.0656 4.9368 22 11.0024 22C17.0681 22 22.0024 17.0656 22.0024 11C22.0024 4.93436 17.0681 0 11.0024 0Z" fill="#F2F2F2"/>
<path d="M16.5792 8.66949L10.6208 14.6277C10.442 14.8065 10.2074 14.8964 9.97272 14.8964C9.73807 14.8964 9.50342 14.8065 9.32466 14.6277L6.34555 11.6486C5.98703 11.2903 5.98703 10.7108 6.34555 10.3525C6.7039 9.99397 7.28314 9.99397 7.64166 10.3525L9.97272 12.6835L15.2831 7.37338C15.6414 7.01486 16.2206 7.01486 16.5792 7.37338C16.9375 7.73174 16.9375 8.31097 16.5792 8.66949Z" fill="url(#paint0_linear_5_1449)"/>
<defs>
<linearGradient id="paint0_linear_5_1449" x1="6.07666" y1="7.10449" x2="6.07666" y2="14.8964" gradientUnits="userSpaceOnUse">
<stop stop-color="#66BC01"/>
<stop offset="1" stop-color="#2F9C07"/>
</linearGradient>
</defs>
</svg>
