<svg width="381" height="453" viewBox="0 0 381 453" fill="none" xmlns="http://www.w3.org/2000/svg">
<path d="M23.7089 15.8613C3.41245 47.8617 4.74027 92.2364 26.921 122.956C41.7039 143.445 63.8719 157.188 81.4748 175.268C99.0778 193.347 112.457 220.035 103.162 243.541C93.7033 267.465 65.9964 277.19 45.2573 292.353C22.3754 309.062 6.84143 334.01 1.9179 361.959C-3.00563 389.907 3.06431 418.681 18.8529 442.238H234.362C234.362 442.238 272.224 369.907 223.55 314.769C174.877 259.63 148.738 258.743 150.533 222.584C152.329 186.425 177.57 174.697 191.999 161.131C206.428 147.565 276.726 115.958 235.26 15.8486L23.7089 15.8613Z" fill="#FAFAFA"/>
<path d="M23.7025 15.8612H27.4077H38.3336H80.3935L235.254 15.7471H235.418V15.8992C238.592 23.4792 241.295 31.2491 243.511 39.1642C245.838 47.4512 247.371 55.942 248.089 64.5211C248.835 73.4888 248.376 82.5163 246.723 91.3614C244.909 100.53 241.62 109.342 236.986 117.454C234.585 121.591 231.871 125.537 228.868 129.257C225.802 133.028 222.485 136.586 218.941 139.907C215.351 143.289 211.59 146.484 207.673 149.479C203.753 152.522 199.656 155.388 195.66 158.43C193.662 159.939 191.866 161.638 189.919 163.337C187.971 165.036 186.036 166.621 184.038 168.218C180.055 171.413 176.034 174.557 172.24 178.095C164.322 184.976 158.237 193.725 154.536 203.553C152.757 208.594 151.635 213.844 151.197 219.173C151.083 220.441 150.906 221.835 150.856 223.179C150.805 224.523 150.755 225.867 150.856 227.211C150.885 229.909 151.155 232.6 151.665 235.249C152.668 240.618 154.854 245.695 158.064 250.108C161.367 254.521 165.108 258.586 169.23 262.242C177.412 269.735 186.1 276.898 194.408 284.632C202.716 292.366 210.847 300.429 218.688 308.962C222.688 313.185 226.43 317.648 229.892 322.325C233.375 327.06 236.403 332.116 238.934 337.425C244.051 348.185 247.196 359.78 248.216 371.657C249.247 383.698 248.54 395.825 246.116 407.664C244.938 413.645 243.393 419.547 241.488 425.337C239.616 431.176 237.334 436.874 234.659 442.39L234.571 442.567H18.6695L18.5809 442.428C8.47469 427.172 2.27655 409.653 0.535417 391.423C-1.21632 373.911 1.34562 356.236 7.99642 339.948C14.3175 324.379 24.0504 310.435 36.4747 299.149C42.5039 293.813 49.015 289.05 55.9239 284.923C62.6515 280.74 69.4423 276.86 75.8537 272.625C82.2712 268.604 88.1669 263.8 93.406 258.324C98.4093 252.947 102.12 246.494 104.256 239.459C106.128 232.594 106.422 225.394 105.116 218.4C103.868 211.65 101.622 205.124 98.4517 199.04C95.4192 193.181 91.7826 187.656 87.6016 182.558C83.5659 177.666 79.1787 173.077 74.4753 168.827C65.3577 160.408 56.0124 153.042 47.6156 145.473C43.4046 141.67 39.4212 137.866 35.7413 133.974C32.1746 130.163 28.8866 126.1 25.9028 121.815C20.5088 113.957 16.3504 105.315 13.5732 96.1919C11.1405 88.3129 9.72946 80.1528 9.37482 71.9126C9.19778 70.0362 9.27365 68.1852 9.27365 66.3722C9.27365 64.5591 9.27364 62.7968 9.43804 61.0852C9.60243 59.3737 9.69096 57.7001 9.81741 56.0139C9.94387 54.3276 10.2853 52.8189 10.5003 51.2848C11.8974 41.9458 14.7479 32.8846 18.9477 24.4318C19.5165 23.1242 20.1669 21.8538 20.8951 20.6283L22.4506 17.9785C23.2725 16.5712 23.7151 15.8612 23.7151 15.8612L22.4506 18.0165L20.9457 20.6283C20.2349 21.8593 19.5932 23.1291 19.0235 24.4318C14.8618 32.9051 12.0457 41.9781 10.6773 51.3228C10.4624 52.8442 10.2094 54.4164 10.0198 56.0265C9.83006 57.6367 9.76683 59.3229 9.64037 61.0345C9.51392 62.7461 9.51392 64.5084 9.50127 66.3088C9.48862 68.1091 9.43804 69.9602 9.61508 71.8366C9.98089 80.0495 11.4048 88.1805 13.8514 96.0271C16.6253 105.118 20.7797 113.726 26.1684 121.549C29.1447 125.816 32.4287 129.858 35.9942 133.644C39.6614 137.549 43.6449 141.353 47.8559 145.055C56.2527 152.662 65.56 159.952 74.7408 168.383C79.4808 172.664 83.9018 177.287 87.9683 182.215C92.1726 187.351 95.8302 192.913 98.8816 198.811C102.082 204.934 104.35 211.502 105.609 218.298C106.934 225.368 106.64 232.646 104.749 239.585C102.604 246.702 98.8573 253.23 93.798 258.666C88.5331 264.174 82.6126 269.011 76.1698 273.069C69.7331 277.316 62.9423 281.196 56.2274 285.38C49.3477 289.496 42.8623 294.241 36.8541 299.554C24.5062 310.783 14.8303 324.647 8.5402 340.125C1.9296 356.33 -0.610718 373.915 1.14241 391.334C2.88373 409.46 9.05101 426.878 19.0994 442.048L18.8465 441.908H234.356L234.065 442.086C236.735 436.584 239.009 430.898 240.868 425.071C242.763 419.306 244.3 413.429 245.471 407.473C247.884 395.693 248.587 383.626 247.558 371.644C246.558 359.832 243.435 348.299 238.339 337.602C235.826 332.332 232.824 327.311 229.373 322.604C225.919 317.951 222.195 313.506 218.22 309.291C210.422 300.78 202.341 292.683 193.978 285C185.682 277.278 177.02 270.128 168.813 262.597C164.658 258.911 160.884 254.817 157.545 250.375C154.273 245.908 152.031 240.767 150.982 235.325C150.476 232.637 150.201 229.909 150.16 227.173C150.097 225.816 150.16 224.46 150.16 223.103C150.16 221.747 150.388 220.403 150.489 219.059C150.953 213.698 152.101 208.419 153.903 203.35C157.637 193.435 163.779 184.611 171.772 177.676C175.566 174.152 179.625 170.957 183.608 167.774C185.606 166.177 187.566 164.567 189.476 162.919C191.385 161.27 193.27 159.495 195.242 157.974C199.264 154.931 203.348 152.066 207.256 149.036C211.161 146.054 214.913 142.876 218.498 139.514C222.02 136.208 225.319 132.671 228.374 128.928C231.354 125.22 234.055 121.296 236.455 117.187C241.063 109.132 244.334 100.38 246.142 91.2727C247.786 82.4994 248.25 73.5447 247.52 64.6479C246.813 56.0702 245.293 47.5796 242.98 39.291C240.795 31.354 238.126 23.559 234.988 15.9499L235.203 16.0894L80.4314 15.9753H38.3463H27.3951L23.7025 15.8612Z" fill="#263238"/>
<path d="M226.656 74.5495C258.397 79.7857 208.358 136.154 180.018 158.392C163.579 171.261 146.001 185.232 138.211 204.605C129.359 226.59 135.923 251.287 131.648 273.398C131.511 274.161 131.09 274.843 130.472 275.307C129.853 275.772 129.082 275.985 128.314 275.903C127.545 275.821 126.836 275.451 126.328 274.866C125.821 274.282 125.553 273.526 125.578 272.752C125.781 258.235 125.401 243.731 123.049 229.442C119.647 209.157 111.883 189.137 97.7576 174.291C86.1867 162.158 71.0244 154.107 58.6948 142.772C40.6872 126.227 22.1864 104.889 20.3781 80.4703C20.3781 80.4703 54.9516 52.5777 74.1479 56.0643C96.5815 60.1848 118.661 94.8858 153.412 90.9174C177.59 88.1408 189.844 68.4892 226.656 74.5495Z" fill="#62BF40"/>
<path d="M229.469 376.234C228.672 368.272 226.548 359.27 219.504 355.517C215.242 353.235 210.045 353.489 205.366 354.718C200.687 355.948 196.299 358.091 191.671 359.473C182.47 362.185 172.644 361.87 163.635 358.573C155.023 355.403 147.638 349.698 139.608 345.159C131.578 340.62 122.258 337.298 113.355 339.517C98.0033 343.321 90.0111 361.882 74.8362 366.357C68.0833 368.335 60.8373 367.219 53.9833 365.673C47.1293 364.126 40.2374 362.11 33.219 362.376C27.7054 362.579 21.9768 364.494 18.1199 368.272L18.0187 368.386C17.3766 369.016 16.7925 369.704 16.2736 370.44C11.5694 376.779 10.8106 385.185 12.2649 392.868C13.8835 401.477 17.8923 409.426 22.1918 417.046C27.2501 426.022 33.0166 434.948 41.3881 440.932C51.7324 448.324 64.7196 443.227 77.378 444.228C106.881 446.561 138.621 448.146 168.137 445.864C183.729 444.596 198.335 446.346 210.702 436.748C219.403 430.003 225.068 419.835 227.8 409.16C230.531 398.485 230.569 387.201 229.469 376.234Z" fill="#62BF40"/>
<g opacity="0.24">
<path opacity="0.24" d="M173.78 360.994C172.124 363.53 171.403 366.978 173.009 369.565C174.615 372.151 176.803 374.522 177.486 377.502C178.586 382.167 175.778 386.731 173.692 391.055C169.83 398.785 168.371 407.499 169.506 416.069C170.702 424.668 175.131 432.483 181.886 437.914C184.883 440.235 188.778 442.035 192.395 440.894C195.797 439.829 197.985 436.368 198.718 432.856C199.452 429.344 198.832 425.73 198.389 422.193C196.33 405.707 196.756 389.004 199.654 372.646C200.135 369.92 200.59 366.801 198.87 364.633C197.629 363.37 196.054 362.49 194.33 362.097C187.754 359.904 180.66 362.338 173.844 361.045" fill="black"/>
</g>
<path d="M3.01339 452.051C3.01339 452.051 2.41903 442.137 15.3177 436.609H241.993C241.993 436.609 253.817 442.618 255.271 451.823L3.01339 452.051Z" fill="#263238"/>
<path d="M237.179 17.0656L236.813 17.2304L23.668 15.8611C23.668 15.8611 22.9092 15.3793 21.7837 14.4792C20.455 13.4356 19.4856 12.001 19.0115 10.3769C18.5375 8.75272 18.5826 7.02051 19.1406 5.42339C19.6985 3.82627 20.7413 2.44442 22.1226 1.4718C23.5039 0.499179 25.1542 -0.0153776 26.842 0.000350084L233.727 1.67391C242.238 1.74998 244.919 13.4142 237.179 17.0656Z" fill="#263238"/>
<g opacity="0.24">
<path opacity="0.24" d="M203.063 98.5887C203.493 99.4128 201.887 101.124 198.839 103.914C195.791 106.703 191.251 110.367 185.611 114.969C178.84 120.579 171.653 125.665 164.114 130.183C159.43 132.902 154.502 135.173 149.394 136.966C146.626 137.926 143.8 138.709 140.934 139.312C137.923 139.953 134.865 140.351 131.791 140.504C125.561 140.844 119.324 139.983 113.417 137.968C108.194 136.064 103.232 133.508 98.6464 130.361C94.3974 127.546 90.7428 124.757 87.2652 122.082C83.7876 119.407 80.6894 116.833 77.8821 114.399C66.6905 104.674 60.7976 97.5237 61.9357 96.1417C63.0739 94.7598 71.0407 99.2606 83.4336 106.868L93.5502 113.08C97.1795 115.286 101.062 117.733 105.033 119.99C108.973 122.309 113.148 124.2 117.489 125.632C121.93 126.965 126.568 127.514 131.197 127.255C140.909 126.748 150.33 123.324 158.486 119.369C166.643 115.413 174.028 110.798 180.427 107.197C185.491 104.201 190.785 101.615 196.259 99.4635C200.268 98.0562 202.696 97.7899 203.063 98.5887Z" fill="black"/>
</g>
<path d="M125.734 299.884C126.63 299.527 127.63 299.537 128.518 299.914C129.406 300.291 130.111 301.003 130.479 301.896C130.847 302.79 130.849 303.793 130.485 304.688C130.121 305.583 129.42 306.299 128.534 306.68C127.648 307.061 126.647 307.076 125.75 306.723C124.852 306.37 124.129 305.676 123.738 304.793C123.346 303.909 123.318 302.907 123.658 302.002C123.998 301.098 124.681 300.364 125.557 299.96" fill="#62BF40"/>
<path d="M49.4934 133.948C49.2162 133.72 48.9621 133.465 48.7346 133.188L46.6733 130.931C45.8008 129.929 44.65 128.763 43.4739 127.279L39.4525 122.208C38.074 120.256 36.5186 118.151 34.9505 115.869L32.6363 112.179C32.2442 111.545 31.8269 110.911 31.4475 110.24L30.3347 108.186C26.9691 102.206 24.3325 95.842 22.4815 89.2313C20.6215 82.6261 19.6184 75.8081 19.4971 68.9458C19.4971 67.361 19.5856 65.8269 19.6109 64.3182C19.6109 63.5701 19.6109 62.8348 19.7121 62.1121C19.8132 61.3894 19.8638 60.6794 19.9397 59.9821C20.1041 58.5875 20.2053 57.2309 20.3949 55.9377C20.5846 54.6445 20.8502 53.402 21.0652 52.2483C21.4193 49.8774 22.0516 47.8108 22.4942 45.909C22.7344 44.9962 22.9241 44.1341 23.1644 43.3733L23.8599 41.256L24.8337 38.3527C24.9267 38.007 25.0538 37.6715 25.2131 37.3511C25.1611 37.7047 25.0764 38.0528 24.9601 38.3907C24.7452 39.126 24.4669 40.1023 24.1002 41.3321L23.4679 43.4494C23.2529 44.2228 23.0759 45.0849 22.8483 45.9851C22.4436 47.8235 21.8492 49.9027 21.5837 52.3243C21.3813 53.4908 21.179 54.7206 20.964 56.0011C20.749 57.2816 20.6984 58.6255 20.5467 60.0202C20.5467 60.7175 20.4076 61.4148 20.3317 62.1375C20.2558 62.8601 20.3317 63.5955 20.2558 64.3308C20.2558 65.8269 20.1547 67.3483 20.1673 68.9204C20.2908 75.7424 21.2809 82.5209 23.1138 89.0919C24.9549 95.654 27.5566 101.977 30.8658 107.932C31.2326 108.617 31.5993 109.301 31.9534 109.986C32.3075 110.671 32.7501 111.254 33.1295 111.913L35.4057 115.603C36.9486 117.935 38.4787 120.04 39.8192 121.942L43.7647 127.013C44.9029 128.522 46.0284 129.701 46.863 130.741L48.8358 133.086C49.0728 133.359 49.2925 133.647 49.4934 133.948Z" fill="#263238"/>
<path d="M37.4974 322.299C37.56 322.153 37.6363 322.013 37.7251 321.881L38.4838 320.689C38.8252 320.157 39.2426 319.523 39.7484 318.762L40.5451 317.494C40.8612 317.076 41.2279 316.657 41.5947 316.226L44.1238 313.184C45.0976 312.131 46.2104 311.041 47.3864 309.849C50.1133 307.217 53.0113 304.769 56.0614 302.521C62.7764 297.45 71.4387 292.378 80.8219 286.432C85.7558 283.384 90.4985 280.034 95.0231 276.403C99.8771 272.527 104.164 267.986 107.757 262.913C114.335 252.781 117.909 240.985 118.064 228.897C118.224 219.045 116.578 209.247 113.208 199.99C110.975 193.744 108.173 187.717 104.836 181.987C103.66 179.946 102.699 178.399 102.042 177.346L101.295 176.155C101.131 175.888 101.055 175.736 101.055 175.736C101.168 175.85 101.266 175.978 101.346 176.117L102.155 177.283C102.851 178.297 103.85 179.819 105.051 181.86C108.491 187.56 111.371 193.58 113.65 199.838C117.111 209.133 118.826 218.989 118.709 228.91C118.655 231.77 118.423 234.624 118.013 237.455C117.603 240.416 116.982 243.344 116.154 246.216C114.427 252.297 111.742 258.062 108.2 263.294C104.57 268.421 100.236 273.01 95.3266 276.923C90.7751 280.557 86.0072 283.911 81.0495 286.964C71.6284 292.86 62.9534 297.881 56.2385 302.914C53.1891 305.132 50.2832 307.541 47.5382 310.128C46.3621 311.307 45.2366 312.372 44.2503 313.412L41.7211 316.391C41.3417 316.848 40.975 317.266 40.6589 317.659L39.8369 318.863L38.5723 320.753L37.763 321.906C37.6851 322.044 37.5963 322.176 37.4974 322.299Z" fill="#263238"/>
<path d="M25.7445 344.703C25.6682 344.909 25.5752 345.108 25.4663 345.299L24.5558 346.909C24.1511 347.593 23.6706 348.456 23.1774 349.445C22.6842 350.433 22.0519 351.6 21.5207 352.931C21.2425 353.59 20.939 354.275 20.6355 354.985C20.332 355.695 20.0791 356.481 19.7756 357.267C19.1686 358.839 18.688 360.564 18.1316 362.339C15.932 370.287 15.1739 378.566 15.8933 386.783C16.1083 388.659 16.26 390.459 16.5888 392.108C16.7279 392.932 16.8417 393.743 17.0061 394.504C17.1705 395.265 17.3476 396 17.512 396.697C17.7902 398.104 18.2075 399.334 18.511 400.425C18.8145 401.515 19.118 402.453 19.3962 403.214L19.9906 404.964C20.0759 405.161 20.1313 405.371 20.155 405.585C20.0331 405.408 19.9353 405.217 19.8641 405.014C19.6744 404.545 19.4468 403.987 19.1559 403.303C18.7737 402.4 18.4402 401.477 18.1569 400.539C17.8155 399.448 17.3729 398.219 17.0567 396.811C16.8797 396.114 16.7026 395.379 16.5129 394.618C16.3232 393.857 16.2094 393.033 16.045 392.209C15.6909 390.535 15.5139 388.735 15.2863 386.846C14.4947 378.578 15.2582 370.235 17.5373 362.25C18.1063 360.424 18.6122 358.687 19.2571 357.115C19.5733 356.329 19.8262 355.556 20.155 354.833L21.0908 352.766C21.6472 351.498 22.3554 350.319 22.8486 349.305C23.2942 348.433 23.7882 347.586 24.3281 346.769L25.3398 345.21C25.5928 344.868 25.7192 344.69 25.7445 344.703Z" fill="#263238"/>
<path d="M182.091 375.181L181.838 375.359L181.054 375.853L177.981 377.705L175.755 378.972C174.921 379.441 173.998 379.873 173.011 380.367C171.013 381.331 168.813 382.56 166.208 383.549L162.161 385.21C160.757 385.768 159.227 386.212 157.684 386.744C154.612 387.873 151.197 388.684 147.644 389.61C132.041 393.273 115.857 393.705 100.083 390.877C96.4663 390.142 93.0266 389.508 89.8905 388.545C88.3224 388.088 86.7796 387.733 85.338 387.277L81.2154 385.768C78.5725 384.919 76.2962 383.816 74.2603 382.953C73.2486 382.51 72.3002 382.117 71.4529 381.686L69.1514 380.481L65.9899 378.795L65.1806 378.338L64.915 378.174C64.915 378.174 65.0289 378.174 65.2185 378.288L66.0532 378.681L69.2652 380.253L71.5794 381.394C72.4393 381.8 73.4004 382.167 74.412 382.598C76.448 383.41 78.7242 384.487 81.3799 385.299L85.4518 386.782C86.8934 387.264 88.4362 387.606 90.0043 388.05C93.1278 388.988 96.5548 389.584 100.121 390.307C115.822 393.033 131.908 392.602 147.441 389.039C150.982 388.126 154.384 387.353 157.457 386.25C159 385.73 160.517 385.312 161.921 384.754L165.967 383.144C168.573 382.18 170.786 380.988 172.784 380.063C173.77 379.581 174.706 379.163 175.54 378.795L177.791 377.527L180.915 375.777L181.737 375.346C181.99 375.207 182.091 375.169 182.091 375.181Z" fill="#263238"/>
<path d="M195.264 106.842C195.186 106.934 195.097 107.015 194.998 107.083L194.163 107.767C193.392 108.389 192.317 109.263 190.939 110.303C188.131 112.534 184.059 115.767 178.913 119.622C172.923 124.219 166.642 128.42 160.108 132.199C156.223 134.379 152.172 136.248 147.994 137.79C143.486 139.434 138.785 140.483 134.007 140.909C124.719 141.431 115.457 139.499 107.148 135.305C103.554 133.475 100.086 131.408 96.7657 129.118C93.6801 126.937 90.8601 124.82 88.3689 122.779C83.3105 118.747 79.4409 115.336 76.7095 113.004L73.5859 110.29L72.7893 109.58L72.5237 109.314C72.5237 109.314 72.6375 109.314 72.8272 109.517L73.6745 110.189L76.8738 112.801C79.6559 115.083 83.6267 118.43 88.6597 122.411C91.1889 124.401 93.9836 126.493 97.0818 128.649C100.391 130.899 103.842 132.932 107.413 134.734C115.64 138.845 124.792 140.737 133.97 140.224C138.69 139.805 143.336 138.773 147.791 137.156C151.941 135.635 155.967 133.791 159.83 131.641C166.354 127.93 172.642 123.819 178.66 119.33C183.819 115.527 187.929 112.357 190.8 110.189L194.1 107.653L194.973 107.019C195.06 106.946 195.158 106.886 195.264 106.842Z" fill="#263238"/>
<g opacity="0.24">
<path opacity="0.24" d="M81.2207 385.831C87.2148 381.191 95.6369 382.307 103.047 383.879C110.458 385.451 117.919 387.974 125.418 386.922C131.07 386.123 136.255 383.346 141.857 382.129C147.459 380.912 154.199 381.812 157.298 386.617C132.535 394.617 105.851 394.341 81.2586 385.831" fill="black"/>
</g>
<path d="M290.285 351.421L263.096 320.854L262.818 358.014L271.012 381.85L189.548 396.011L186.096 331.567L180.228 282.121C179.88 279.173 180.514 276.192 182.034 273.644C183.553 271.096 185.87 269.123 188.625 268.035L211.046 259.16L242.661 264.967L255.37 269.81C260.698 271.844 265.448 275.157 269.204 279.458L307.445 323.3" fill="#62BF40"/>
<path d="M261.226 313.501C262.761 313.48 264.294 313.369 265.817 313.171C269.485 312.61 272.902 310.963 275.63 308.442C278.359 305.921 280.274 302.641 281.131 299.022C281.446 297.51 281.678 295.982 281.827 294.445C281.929 294.859 281.968 295.287 281.94 295.713C281.95 296.863 281.831 298.012 281.586 299.136C280.821 302.901 278.893 306.328 276.076 308.934C273.26 311.539 269.697 313.19 265.893 313.653C264.756 313.8 263.607 313.825 262.466 313.729C262.043 313.72 261.624 313.643 261.226 313.501Z" fill="white"/>
<path d="M263.593 356.43C263.783 356.43 263.834 343.549 263.707 327.675C263.581 311.802 263.315 298.933 263.125 298.933C262.935 298.933 262.884 311.802 263.011 327.688C263.138 343.574 263.403 356.43 263.593 356.43Z" fill="#263238"/>
<path d="M260.599 365.875L211.381 346.008C209.436 345.223 207.748 343.908 206.508 342.212C205.267 340.517 204.525 338.507 204.363 336.411L200.759 289.094C200.759 289.094 201.189 268.961 188.644 267.985L181.55 270.799C172.331 275.706 170.055 289.171 171.307 299.554C173.09 314.312 173.836 335.206 175.821 348.011C177.465 358.496 183.409 367.714 193.677 370.414L254.301 383.574L260.599 365.875Z" fill="#62BF40"/>
<path d="M201.473 296.309C201.555 296.663 201.606 297.023 201.625 297.386C201.701 298.16 201.815 299.199 201.941 300.505C202.194 303.282 202.548 307.187 202.978 311.979C203.408 316.772 203.889 322.616 204.445 329.006C204.571 330.617 204.711 332.252 204.85 333.926C204.947 335.628 205.159 337.323 205.482 338.997C205.825 340.69 206.682 342.236 207.935 343.422C209.284 344.611 210.817 345.57 212.475 346.262C226.044 352.145 238.551 357.013 247.63 360.424L258.417 364.405L261.351 365.482C261.694 365.596 262.028 365.736 262.35 365.901C261.992 365.835 261.641 365.738 261.3 365.609L258.329 364.646C255.799 363.783 252.006 362.503 247.479 360.842C238.336 357.546 225.816 352.753 212.197 346.896C210.474 346.17 208.881 345.168 207.48 343.929C206.135 342.649 205.217 340.984 204.85 339.162C204.523 337.463 204.316 335.743 204.23 334.014C204.091 332.328 203.964 330.693 203.838 329.082C203.345 322.743 202.889 316.911 202.573 312.043C202.257 307.174 201.941 303.332 201.739 300.556C201.65 299.288 201.587 298.198 201.549 297.424C201.492 297.055 201.466 296.682 201.473 296.309Z" fill="#263238"/>
<path d="M173.269 322.033C173.319 322.241 173.349 322.453 173.357 322.667L173.521 324.493C173.673 326.179 173.863 328.448 174.103 331.212C174.343 333.976 174.723 337.412 175.216 341.14C175.7 345.176 176.439 349.178 177.429 353.121C177.895 355.152 178.708 357.086 179.832 358.839C180.93 360.448 182.161 361.962 183.512 363.365C185.813 365.739 188.472 367.737 191.39 369.286C194.111 370.672 197.028 371.63 200.04 372.126C199.826 372.153 199.609 372.153 199.395 372.126C198.784 372.085 198.175 372.005 197.574 371.885C195.35 371.469 193.195 370.739 191.175 369.717C188.175 368.203 185.441 366.207 183.082 363.809C181.684 362.39 180.414 360.85 179.288 359.206C178.107 357.405 177.251 355.409 176.759 353.311C175.755 349.338 175.024 345.301 174.571 341.228C174.116 337.425 173.812 334.103 173.61 331.263C173.408 328.423 173.294 326.116 173.231 324.518C173.231 323.783 173.231 323.174 173.231 322.68C173.209 322.464 173.222 322.245 173.269 322.033Z" fill="#263238"/>
<path d="M194.308 355.136C194.437 354.212 194.742 353.321 195.206 352.512C196.22 350.491 197.626 348.694 199.341 347.224C201.056 345.755 203.047 344.643 205.196 343.954C206.067 343.62 206.995 343.461 207.927 343.485C207.1 343.831 206.256 344.135 205.398 344.398C203.365 345.186 201.48 346.314 199.821 347.732C198.167 349.154 196.761 350.842 195.661 352.727C194.776 354.185 194.409 355.174 194.308 355.136Z" fill="#263238"/>
<path d="M203.99 319.155C204.097 319.187 204.2 319.234 204.293 319.295L205.179 319.764C206.32 320.328 207.494 320.823 208.694 321.247C213.119 322.804 217.865 323.214 222.491 322.439C229.361 321.21 235.499 317.384 239.638 311.751C242.112 308.497 243.663 304.633 244.128 300.569C244.357 298.433 244.133 296.272 243.47 294.229C242.771 292.144 241.552 290.272 239.929 288.79C238.33 287.289 236.316 286.308 234.15 285.976C233.124 285.791 232.07 285.843 231.067 286.126C230.064 286.41 229.138 286.917 228.358 287.611C227.653 288.304 227.244 289.246 227.22 290.236C227.242 291.22 227.579 292.171 228.181 292.949C228.809 293.7 229.58 294.319 230.448 294.77C231.316 295.22 232.265 295.493 233.24 295.573C236.664 296.001 240.141 295.56 243.351 294.291C246.562 293.022 249.403 290.965 251.614 288.309C253.29 286.242 254.553 283.87 255.332 281.323C255.913 279.393 256.228 277.392 256.268 275.376C256.282 274.103 256.188 272.831 255.989 271.573C255.914 271.18 255.85 270.85 255.812 270.597C255.801 270.483 255.801 270.368 255.812 270.254C256.335 271.893 256.591 273.605 256.571 275.326C256.584 277.371 256.303 279.408 255.737 281.373C254.329 286.11 251.289 290.192 247.16 292.892C243.031 295.592 238.08 296.736 233.189 296.118C232.145 296.026 231.129 295.728 230.2 295.24C229.271 294.753 228.448 294.086 227.777 293.278C227.09 292.392 226.708 291.307 226.689 290.185C226.69 289.031 227.145 287.924 227.954 287.104C228.803 286.343 229.813 285.784 230.908 285.468C232.002 285.152 233.154 285.087 234.277 285.278C236.577 285.62 238.717 286.66 240.41 288.258C242.122 289.809 243.403 291.779 244.128 293.976C244.816 296.101 245.049 298.347 244.811 300.569C244.317 304.722 242.714 308.664 240.17 311.979C236.659 316.782 231.676 320.299 225.983 321.994C220.289 323.688 214.199 323.466 208.644 321.361C207.002 320.834 205.438 320.093 203.99 319.155Z" fill="white"/>
<path d="M171.755 306.54C171.968 306.161 172.242 305.818 172.564 305.526C173.372 304.668 174.262 303.891 175.22 303.206C178.448 300.982 182.203 299.648 186.108 299.339C188.25 299.097 190.417 299.187 192.532 299.605C194.251 299.963 195.914 300.552 197.477 301.355C198.525 301.885 199.532 302.495 200.486 303.18C200.856 303.407 201.189 303.69 201.473 304.017C201.397 304.119 199.93 303.003 197.274 301.773C193.813 300.164 189.973 299.549 186.184 299.998C182.379 300.299 178.705 301.531 175.485 303.586C173.045 305.222 171.843 306.629 171.755 306.54Z" fill="white"/>
<path d="M179.628 272.701C180.828 273.834 182.167 274.81 183.612 275.605C185.19 276.416 186.906 276.923 188.67 277.101C190.818 277.317 192.987 277.012 194.993 276.213C196.96 275.372 198.696 274.067 200.052 272.41C201.171 271.027 202.028 269.45 202.581 267.757C203.036 266.167 203.295 264.528 203.352 262.875C203.475 263.312 203.531 263.766 203.517 264.219C203.538 265.463 203.372 266.702 203.024 267.896C202.508 269.678 201.649 271.34 200.494 272.79C199.108 274.608 197.266 276.026 195.156 276.899C193.046 277.772 190.742 278.069 188.481 277.76C186.647 277.552 184.872 276.983 183.258 276.086C182.171 275.488 181.182 274.727 180.324 273.83C180.025 273.5 179.789 273.117 179.628 272.701Z" fill="white"/>
<path d="M222.513 350.509C222.515 350.194 222.549 349.879 222.614 349.571C222.791 348.69 223.084 347.838 223.486 347.035C225.094 344.082 227.706 341.806 230.846 340.62C235.469 338.777 240.584 338.594 245.326 340.1C247.931 340.873 250.916 341.837 252.914 344.385C253.416 345.036 253.733 345.811 253.831 346.628C253.929 347.446 253.804 348.274 253.47 349.026C252.707 350.492 251.473 351.658 249.967 352.335C248.514 353.056 246.922 353.454 245.301 353.501C243.691 353.579 242.106 353.085 240.824 352.107C240.232 351.6 239.75 350.978 239.406 350.278C239.063 349.578 238.865 348.816 238.826 348.037C238.743 346.581 238.972 345.124 239.496 343.764C241.402 339.142 245.032 335.448 249.613 333.469C252.653 332.111 255.982 331.536 259.3 331.796C260.508 331.888 261.698 332.139 262.841 332.544C262.841 332.632 261.576 332.214 259.275 332.049C256.526 331.9 253.776 332.314 251.193 333.267C248.61 334.219 246.248 335.69 244.251 337.59C242.397 339.37 240.952 341.533 240.015 343.929C239.524 345.209 239.313 346.579 239.395 347.948C239.432 348.641 239.61 349.32 239.919 349.942C240.228 350.563 240.661 351.114 241.191 351.561C242.347 352.452 243.781 352.901 245.238 352.829C246.758 352.789 248.251 352.417 249.613 351.739C250.988 351.124 252.118 350.067 252.825 348.734C253.11 348.086 253.216 347.374 253.131 346.671C253.047 345.968 252.775 345.301 252.345 344.74C251.462 343.624 250.332 342.729 249.044 342.129C247.795 341.53 246.496 341.042 245.162 340.671C240.545 339.173 235.556 339.302 231.023 341.038C227.951 342.153 225.365 344.31 223.714 347.137C223.167 348.202 222.763 349.337 222.513 350.509Z" fill="white"/>
<path d="M189.755 368.322C189.755 368.195 191.627 368.043 194.472 367.054C198.187 365.743 201.514 363.519 204.152 360.587C206.789 357.655 208.652 354.107 209.571 350.268C210.292 347.327 210.267 345.412 210.393 345.425C210.482 345.863 210.503 346.312 210.456 346.756C210.427 347.971 210.283 349.181 210.027 350.369C209.207 354.333 207.347 358.005 204.64 361.007C201.932 364.009 198.474 366.232 194.624 367.447C193.471 367.824 192.285 368.091 191.083 368.246C190.646 368.336 190.199 368.361 189.755 368.322Z" fill="white"/>
<path d="M173.774 331.542C173.961 331.437 174.161 331.356 174.368 331.301C174.773 331.174 175.355 330.997 176.126 330.794C178.315 330.216 180.581 329.985 182.841 330.109C184.411 330.228 185.949 330.609 187.394 331.238C189.076 331.965 190.54 333.118 191.643 334.585C192.853 336.248 193.44 338.286 193.299 340.341C193.218 341.434 192.885 342.493 192.326 343.434C191.759 344.427 190.865 345.189 189.796 345.59C189.233 345.782 188.629 345.823 188.045 345.707C187.461 345.591 186.918 345.323 186.47 344.93C185.711 344.092 185.3 342.994 185.32 341.862C185.254 339.842 185.652 337.834 186.483 335.992C187.637 333.367 189.633 331.205 192.153 329.847C194.673 328.49 197.574 328.015 200.394 328.499C201 328.593 201.597 328.742 202.177 328.943C202.569 329.095 202.771 329.184 202.758 329.209C202.746 329.234 201.911 328.943 200.356 328.753C198.157 328.486 195.928 328.773 193.868 329.589C190.818 330.817 188.376 333.205 187.077 336.233C186.305 337.992 185.938 339.903 186.003 341.824C185.976 342.794 186.32 343.737 186.964 344.461C187.326 344.771 187.763 344.98 188.231 345.069C188.699 345.158 189.181 345.123 189.632 344.968C190.569 344.621 191.356 343.958 191.858 343.092C192.361 342.237 192.664 341.279 192.743 340.29C192.875 338.385 192.343 336.494 191.238 334.94C190.211 333.544 188.838 332.443 187.254 331.745C185.871 331.115 184.392 330.721 182.879 330.578C180.667 330.413 178.444 330.571 176.278 331.047C174.646 331.364 173.799 331.593 173.774 331.542Z" fill="white"/>
<g opacity="0.3">
<path opacity="0.3" d="M246.462 360.233C241.201 357.254 236.054 354.959 230.553 352.461C225.052 349.964 219.653 346.73 216.048 341.862C209.258 332.683 210.029 319.434 203.086 310.381C203.542 316.467 203.993 322.557 204.439 328.651C204.857 334.23 204.009 339.757 207.588 343.548C210.611 346.743 216.504 349.19 220.677 350.572C229.061 353.349 238.09 357.469 246.462 360.233Z" fill="black"/>
</g>
<path d="M332.028 429.774C332.028 429.774 373.215 441.185 374.872 441.794C377.401 442.668 376.933 451.784 373.076 451.632C371.242 451.569 341.462 452.748 337.668 452.52C333.874 452.291 322.493 447.791 322.493 447.791L332.028 429.774Z" fill="#62BF40"/>
<path d="M349.157 445.534C349.666 444.016 350.274 442.534 350.978 441.097C351.865 439.767 352.836 438.496 353.887 437.293C352.421 438.097 351.205 439.291 350.37 440.742C349.536 442.193 349.116 443.847 349.157 445.521V445.534Z" fill="#263238"/>
<path d="M344.843 443.581C345.046 443.581 345.463 441.667 346.563 439.512C347.663 437.356 348.953 435.847 348.814 435.708C347.612 436.646 346.632 437.84 345.946 439.204C345.259 440.568 344.883 442.067 344.843 443.594V443.581Z" fill="#263238"/>
<path d="M340.885 442.504C341.087 441.026 341.408 439.568 341.846 438.142C342.491 436.797 343.24 435.505 344.084 434.275C342.778 435.157 341.772 436.417 341.2 437.888C340.628 439.358 340.518 440.969 340.885 442.504Z" fill="#263238"/>
<path d="M341.569 437.166C341.932 436.186 342.083 435.14 342.012 434.097C341.999 432.961 341.859 431.83 341.595 430.725C341.436 430.072 341.229 429.432 340.975 428.811C340.855 428.417 340.628 428.065 340.317 427.796C340.109 427.642 339.854 427.565 339.595 427.579C339.337 427.593 339.091 427.696 338.901 427.872C338.582 428.18 338.388 428.596 338.357 429.039C338.326 429.402 338.326 429.766 338.357 430.129C338.361 430.809 338.446 431.485 338.61 432.145C338.884 433.251 339.309 434.313 339.875 435.302C340.328 436.255 340.954 437.115 341.721 437.838C341.822 437.838 341.127 436.811 340.305 435.124C339.824 434.149 339.463 433.119 339.23 432.056C339.097 431.435 339.029 430.802 339.027 430.167C339.027 429.533 339.027 428.747 339.407 428.443C339.481 428.375 339.578 428.338 339.679 428.338C339.779 428.338 339.876 428.375 339.951 428.443C340.156 428.645 340.312 428.893 340.406 429.166C340.648 429.761 340.855 430.371 341.025 430.991C341.315 432.043 341.497 433.122 341.569 434.212C341.645 435.987 341.455 437.153 341.569 437.166Z" fill="#263238"/>
<path d="M341.5 436.748C340.661 436.397 339.751 436.249 338.845 436.317C337.86 436.317 336.879 436.436 335.923 436.672C335.334 436.806 334.765 437.015 334.229 437.293C333.891 437.465 333.619 437.742 333.452 438.083C333.286 438.424 333.234 438.809 333.306 439.182C333.4 439.538 333.587 439.863 333.847 440.123C334.106 440.384 334.43 440.571 334.785 440.666C335.391 440.818 336.025 440.818 336.632 440.666C337.606 440.442 338.521 440.01 339.312 439.398C340.062 438.894 340.71 438.253 341.222 437.509C340.461 437.955 339.731 438.45 339.034 438.992C338.269 439.518 337.411 439.893 336.505 440.095C336.003 440.222 335.477 440.222 334.975 440.095C334.737 440.035 334.52 439.913 334.344 439.742C334.169 439.57 334.042 439.355 333.976 439.119C333.937 438.886 333.976 438.648 334.085 438.439C334.195 438.231 334.37 438.064 334.583 437.965C335.053 437.706 335.554 437.51 336.075 437.382C336.983 437.122 337.915 436.961 338.857 436.9C340.463 436.697 341.475 436.862 341.5 436.748Z" fill="#263238"/>
<path d="M355.479 445.978C355.655 444.716 355.93 443.47 356.301 442.251C356.879 441.118 357.552 440.036 358.312 439.018C357.112 439.673 356.175 440.724 355.659 441.992C355.143 443.26 355.079 444.668 355.479 445.978Z" fill="#263238"/>
<path d="M326.742 447.892C327.24 448.209 327.775 448.464 328.335 448.653C329.83 449.222 331.359 449.696 332.913 450.073C338.078 451.203 343.36 451.705 348.644 451.569C354.816 451.493 360.38 451.214 364.414 451.049L369.182 450.796C369.767 450.786 370.351 450.726 370.927 450.618C370.346 450.527 369.756 450.497 369.169 450.529H364.401L348.644 450.834C343.408 450.968 338.173 450.543 333.027 449.566C329.081 448.767 326.792 447.753 326.742 447.892Z" fill="#263238"/>
<path d="M325.533 448.83C325.533 448.919 326.709 448.26 328.619 447.423C331.045 446.274 333.745 445.835 336.409 446.155C339.029 446.724 341.394 448.13 343.149 450.161C343.88 451.027 344.67 451.841 345.514 452.596C344.971 451.588 344.295 450.658 343.503 449.832C342.691 448.886 341.775 448.035 340.772 447.296C339.515 446.363 338.054 445.746 336.51 445.496C333.715 445.156 330.883 445.692 328.404 447.03C327.356 447.471 326.387 448.079 325.533 448.83Z" fill="#263238"/>
<path d="M288.263 418.377C288.263 418.377 249.289 443.962 247.898 445.002C245.799 446.587 248.201 454.156 251.843 452.85C253.563 452.228 286.265 443.1 289.781 441.731C293.296 440.361 302.768 432.678 302.768 432.678L288.263 418.377Z" fill="#62BF40"/>
<path d="M276.698 438.612C276.228 437.003 275.326 435.555 274.091 434.426C272.855 433.296 271.333 432.53 269.692 432.209C271.063 433.033 272.377 433.948 273.625 434.948C274.725 436.104 275.751 437.327 276.698 438.612Z" fill="#263238"/>
<path d="M280.19 435.442C279.694 433.995 278.885 432.676 277.82 431.58C276.755 430.484 275.461 429.638 274.031 429.103C273.93 429.28 275.637 430.37 277.319 432.044C279.001 433.718 280.013 435.543 280.19 435.442Z" fill="#263238"/>
<path d="M283.694 433.185C283.688 431.59 283.083 430.055 281.999 428.887C281.093 427.598 279.74 426.694 278.205 426.352C279.378 427.27 280.482 428.274 281.506 429.356C282.335 430.572 283.067 431.853 283.694 433.185Z" fill="#263238"/>
<path d="M281.451 428.329C281.552 428.329 281.021 427.226 280.578 425.401C280.312 424.342 280.156 423.259 280.111 422.168C280.067 421.526 280.067 420.882 280.111 420.241C280.106 419.951 280.18 419.666 280.325 419.416C280.38 419.33 280.466 419.269 280.565 419.245C280.665 419.221 280.769 419.237 280.857 419.29C281.299 419.467 281.527 420.228 281.742 420.836C281.928 421.44 282.055 422.06 282.121 422.688C282.219 423.774 282.185 424.868 282.02 425.946C281.755 427.797 281.388 428.925 281.489 428.963C282.01 428.056 282.353 427.058 282.501 426.022C282.743 424.911 282.828 423.771 282.754 422.637C282.703 421.958 282.58 421.286 282.387 420.634C282.283 420.283 282.156 419.94 282.007 419.607C281.839 419.191 281.524 418.853 281.122 418.656C280.888 418.546 280.622 418.523 280.373 418.59C280.123 418.658 279.905 418.811 279.756 419.023C279.547 419.376 279.438 419.779 279.44 420.19C279.301 421.996 279.507 423.812 280.047 425.54C280.313 426.559 280.792 427.51 281.451 428.329Z" fill="#263238"/>
<path d="M281.316 427.911C281.316 428.012 282.277 427.556 283.845 427.163C284.762 426.942 285.698 426.815 286.64 426.782C287.177 426.746 287.717 426.78 288.246 426.884C288.479 426.916 288.695 427.022 288.863 427.186C289.032 427.35 289.143 427.564 289.182 427.796C289.192 428.048 289.136 428.299 289.018 428.522C288.9 428.744 288.725 428.932 288.511 429.064C288.076 429.339 287.582 429.504 287.07 429.546C286.146 429.637 285.213 429.542 284.326 429.267C283.501 428.958 282.656 428.708 281.796 428.519C282.51 429.091 283.325 429.521 284.199 429.787C285.138 430.147 286.143 430.299 287.146 430.231C287.769 430.198 288.374 430.006 288.903 429.673C289.216 429.48 289.472 429.207 289.643 428.881C289.814 428.555 289.895 428.19 289.877 427.822C289.833 427.444 289.666 427.092 289.404 426.817C289.142 426.542 288.797 426.361 288.423 426.3C287.83 426.195 287.226 426.17 286.627 426.224C285.644 426.29 284.671 426.473 283.731 426.77C282.849 426.958 282.023 427.349 281.316 427.911Z" fill="#263238"/>
<path d="M256.805 451.442C256.805 451.506 257.462 451.049 257.766 449.933C258.069 448.476 257.806 446.957 257.032 445.686C256.658 445.006 256.235 444.354 255.768 443.734C255.388 443.205 254.941 442.728 254.44 442.314C254.081 442.016 253.64 441.835 253.175 441.794C252.847 441.794 252.682 441.857 252.682 441.895C252.682 441.933 253.378 441.959 254.098 442.694C254.524 443.125 254.901 443.601 255.224 444.114C255.678 444.726 256.1 445.361 256.489 446.016C257.187 447.153 257.49 448.491 257.349 449.819C257.2 450.371 257.018 450.913 256.805 451.442Z" fill="#263238"/>
<path d="M270.803 440.957C270.855 440.271 270.759 439.582 270.521 438.936C270.283 438.291 269.909 437.704 269.424 437.217C269.035 436.65 268.526 436.176 267.934 435.827C267.342 435.479 266.681 435.265 265.997 435.201C267.031 435.937 268 436.76 268.893 437.661C269.621 438.704 270.26 439.807 270.803 440.957Z" fill="#263238"/>
<path d="M298.771 434.034C298.165 434.372 297.59 434.762 297.051 435.201C295.507 436.276 293.902 437.262 292.246 438.155C289.795 439.458 287.26 440.597 284.658 441.565C281.699 442.668 278.335 443.708 274.896 444.722C267.877 446.751 261.529 448.602 256.951 449.984L251.501 451.695C250.828 451.874 250.172 452.112 249.54 452.405C250.23 452.311 250.91 452.163 251.576 451.962L257.052 450.427C261.668 449.16 268.029 447.385 275.047 445.356C278.55 444.329 281.876 443.264 284.835 442.123C287.469 441.119 290.026 439.924 292.486 438.548C294.138 437.609 295.719 436.55 297.216 435.378C297.771 434.974 298.291 434.525 298.771 434.034Z" fill="#263238"/>
<path d="M300.198 434.554C299.15 434.091 298.036 433.792 296.898 433.667C294.127 433.152 291.266 433.507 288.703 434.681C287.318 435.408 286.129 436.461 285.238 437.749C284.504 438.766 283.889 439.863 283.404 441.02C282.897 442.047 282.535 443.139 282.329 444.266C282.902 443.286 283.409 442.27 283.847 441.223C284.901 438.748 286.73 436.683 289.057 435.34C291.505 434.236 294.213 433.845 296.872 434.212C298.896 434.377 300.173 434.656 300.198 434.554Z" fill="#263238"/>
<path d="M369.264 355.986C369.264 355.986 380.961 360.17 380.999 373.317C381.1 398.484 330.264 426.237 330.264 426.237L262.609 381.305L258.373 379.58C258.373 379.58 349.739 345.196 369.264 355.986Z" fill="#263238"/>
<path d="M296.876 403.999C297.499 403.653 298.091 403.255 298.647 402.808C299.747 401.996 301.327 400.805 303.262 399.296C307.145 396.304 312.405 392.044 318.083 387.162C323.761 382.281 328.744 377.704 332.285 374.319C334.055 372.633 335.472 371.238 336.445 370.262C336.971 369.786 337.454 369.264 337.887 368.703C337.305 369.111 336.759 369.569 336.256 370.072L331.956 373.964C328.327 377.248 323.294 381.774 317.628 386.643C311.963 391.511 306.753 395.822 302.971 398.915L298.482 402.592C297.91 403.018 297.373 403.488 296.876 403.999Z" fill="#455A64"/>
<path d="M350.183 365.393C345.759 364.924 341.329 366.233 337.866 369.032C337.98 369.222 340.395 367.638 343.86 366.649C347.325 365.66 350.183 365.609 350.183 365.393Z" fill="#455A64"/>
<path d="M344.337 361.425C342.772 362.091 341.395 363.133 340.327 364.46C339.26 365.787 338.535 367.357 338.217 369.032C338.419 369.032 339.153 366.991 340.86 364.899C342.567 362.807 344.451 361.602 344.337 361.425Z" fill="#455A64"/>
<path d="M372.968 441.147C372.968 441.071 372.158 440.906 371.222 441.68C370.12 442.71 369.428 444.106 369.275 445.61C369.053 447.088 369.264 448.598 369.882 449.959C370.362 450.985 370.894 451.467 370.957 451.417C370.79 450.853 370.583 450.302 370.337 449.768C369.894 448.465 369.764 447.075 369.958 445.711C370.108 444.353 370.663 443.072 371.551 442.035C372.272 441.286 372.98 441.261 372.968 441.147Z" fill="#263238"/>
<path d="M353.685 314.844L329.595 376.081L225.861 377.78L223.939 372.151L260.296 370.832L277.772 316.505L353.685 314.844Z" fill="#455A64"/>
<path d="M305.26 341.393C306.056 340.992 306.951 340.83 307.837 340.927C308.724 341.023 309.563 341.375 310.255 341.938C310.842 342.492 311.249 343.21 311.423 344C311.597 344.789 311.529 345.613 311.229 346.363C310.904 347.112 310.376 347.754 309.706 348.218C309.035 348.682 308.248 348.948 307.435 348.987C306.578 349.042 305.727 348.816 305.011 348.342C304.294 347.869 303.751 347.174 303.464 346.363C303.193 345.456 303.216 344.486 303.53 343.593C303.843 342.7 304.431 341.93 305.209 341.393" fill="#EBEBEB"/>
<path d="M336.651 429.306C336.651 429.306 241.074 366.446 237.179 365.14C233.285 363.834 223.8 357.622 214.354 360.234C204.907 362.845 196.409 371.353 192.173 383.777C189.745 390.877 188.607 402.985 188.063 412.076C187.339 422.946 190.852 433.674 197.864 441.997C200.97 445.881 205.095 448.818 209.776 450.479C210.775 450.796 211.812 451.062 212.874 451.29C230.945 455.221 249.547 447.081 259.664 431.588L261.889 428.19C261.889 428.19 324.423 451.214 325.396 450.897L336.651 429.306Z" fill="#263238"/>
<path d="M218.436 411.999C218.604 412.085 218.777 412.161 218.954 412.228L220.522 412.849L226.579 415.194L249.102 423.702C258.662 427.277 270.119 431.537 282.98 436.228C295.84 440.919 310.08 446.054 325.305 451.214L325.571 451.315L325.71 451.049L333.183 436.748L336.977 429.458L337.116 429.179L336.851 429.014L263.948 382.611L242.045 368.766L236.102 365.038L234.546 364.087C234.192 363.872 234.003 363.783 234.003 363.783L234.508 364.151L236.026 365.152L241.906 368.956L263.758 383.016L336.547 429.597L336.421 429.141C335.219 431.461 333.892 433.933 332.627 436.431L325.166 450.732L325.583 450.567C310.408 445.42 296.119 440.298 283.245 435.645L249.317 423.271L226.668 414.928L220.573 412.697L218.979 412.139L218.436 411.999Z" fill="#455A64"/>
<path d="M228.327 188.795C229.959 184.37 233.563 182.456 238.128 181.353C240.424 180.817 242.815 180.845 245.098 181.434C247.382 182.024 249.489 183.157 251.242 184.738C253.556 186.855 255.25 189.809 258.108 191.077C262.825 193.22 268.857 190.088 273.283 192.713C274.613 193.498 275.63 194.721 276.162 196.173C276.694 197.625 276.708 199.217 276.201 200.679C275.694 202.14 274.698 203.38 273.382 204.189C272.067 204.997 270.512 205.323 268.984 205.112C272.057 206.558 272.626 211.198 270.514 213.86C268.402 216.523 264.494 217.246 261.219 216.32C257.991 215.205 255.127 213.228 252.936 210.602C250.635 208.066 248.611 205.34 246.107 202.995C243.704 200.547 240.515 199.029 237.104 198.71C232.513 198.532 228.252 201.638 225.861 205.556C223.471 209.474 222.548 214.127 221.878 218.691C221.208 223.255 220.702 227.895 218.944 232.155C218.742 232.663 218.438 233.208 217.92 233.322C217.149 233.487 216.592 232.637 216.289 231.915C212.828 223.772 210.998 215.027 210.902 206.177C210.838 201.106 211.42 196.25 214.594 192.231C217.768 188.212 225.09 185.714 228.289 188.732" fill="#263238"/>
<path d="M217.563 209.245L210.532 260.441C210.25 262.508 210.391 264.612 210.945 266.623C211.5 268.634 212.457 270.511 213.759 272.139C215.06 273.768 216.678 275.114 218.515 276.095C220.351 277.077 222.368 277.673 224.442 277.849C228.368 278.191 232.276 277.006 235.355 274.54C238.434 272.074 240.449 268.514 240.983 264.6C241.501 260.796 241.944 257.538 242.032 257.145C242.032 257.145 255.197 257.715 257.903 244.948C259.167 238.773 260.875 225.841 262.253 214.127C262.948 208.064 261.345 201.961 257.761 197.029C254.176 192.097 248.874 188.696 242.905 187.502L241.64 187.261C228.173 185.334 219.068 195.73 217.563 209.245Z" fill="#FFBE9D"/>
<path d="M242.034 256.967C236.115 255.878 230.652 253.049 226.34 248.84C226.34 248.84 228.44 258.831 241.402 260.251L242.034 256.967Z" fill="#EB996E"/>
<path d="M256.751 221.962C256.662 222.439 256.389 222.862 255.992 223.14C255.594 223.417 255.104 223.527 254.627 223.446C254.392 223.419 254.164 223.345 253.958 223.229C253.752 223.112 253.571 222.955 253.427 222.767C253.283 222.579 253.179 222.363 253.12 222.133C253.061 221.904 253.048 221.664 253.084 221.43C253.17 220.95 253.442 220.524 253.84 220.244C254.237 219.964 254.729 219.852 255.209 219.934C255.444 219.962 255.672 220.037 255.878 220.155C256.084 220.273 256.265 220.431 256.409 220.62C256.553 220.809 256.657 221.026 256.716 221.256C256.775 221.487 256.787 221.727 256.751 221.962Z" fill="#263238"/>
<path d="M258.212 219.857C257.934 220.06 256.758 218.754 254.798 218.361C252.838 217.968 251.194 218.678 251.004 218.361C250.814 218.044 251.244 217.854 251.965 217.525C252.926 217.096 253.998 216.985 255.025 217.208C256.047 217.403 256.978 217.924 257.681 218.691C258.225 219.3 258.339 219.781 258.212 219.857Z" fill="#263238"/>
<path d="M237.372 218.767C237.286 219.246 237.015 219.672 236.617 219.953C236.219 220.233 235.727 220.344 235.248 220.263C235.012 220.233 234.785 220.157 234.579 220.039C234.373 219.921 234.193 219.763 234.048 219.574C233.904 219.385 233.798 219.17 233.737 218.94C233.676 218.71 233.661 218.47 233.692 218.234C233.788 217.759 234.061 217.339 234.457 217.061C234.852 216.783 235.339 216.667 235.817 216.738C236.053 216.766 236.281 216.842 236.488 216.959C236.695 217.077 236.876 217.235 237.021 217.424C237.166 217.613 237.272 217.829 237.332 218.06C237.392 218.291 237.406 218.531 237.372 218.767Z" fill="#263238"/>
<path d="M238.824 216.371C238.546 216.561 237.37 215.255 235.41 214.862C233.45 214.469 231.806 215.179 231.616 214.862C231.426 214.545 231.856 214.355 232.577 214.025C233.54 213.604 234.609 213.493 235.638 213.708C236.658 213.916 237.59 214.434 238.306 215.192C238.837 215.876 238.951 216.282 238.824 216.371Z" fill="#263238"/>
<path d="M243.039 232.358C244.137 232.235 245.247 232.257 246.339 232.421C246.858 232.421 247.351 232.421 247.503 232.13C247.664 231.627 247.664 231.086 247.503 230.583C247.275 229.315 247.035 227.895 246.782 226.45C245.808 220.592 245.214 215.825 245.442 215.787C245.669 215.749 246.706 220.466 247.629 226.323C247.857 227.768 248.085 229.138 248.287 230.456C248.485 231.127 248.435 231.847 248.148 232.485C248.041 232.645 247.898 232.779 247.732 232.875C247.565 232.972 247.379 233.029 247.187 233.043C246.897 233.084 246.604 233.084 246.314 233.043C245.198 232.952 244.098 232.722 243.039 232.358Z" fill="#263238"/>
<path d="M236.994 232.587C237.323 232.587 236.893 234.767 238.41 236.644C239.928 238.52 242.204 238.748 242.204 239.053C242.204 239.357 241.622 239.357 240.661 239.192C239.409 238.961 238.277 238.297 237.462 237.316C236.69 236.365 236.314 235.152 236.412 233.931C236.513 233.018 236.855 232.536 236.994 232.587Z" fill="#263238"/>
<path d="M240.864 208.751C240.573 209.258 238.664 208.612 236.299 208.422C233.934 208.231 231.961 208.498 231.746 207.953C231.658 207.699 232.088 207.268 232.935 206.9C234.059 206.455 235.272 206.282 236.476 206.393C237.687 206.486 238.858 206.868 239.89 207.509C240.662 208.016 240.978 208.523 240.864 208.751Z" fill="#263238"/>
<path d="M258.604 214.025C258.174 214.406 256.922 213.67 255.29 213.315C253.659 212.96 252.23 213.024 252.015 212.491C251.914 212.238 252.217 211.832 252.913 211.528C253.819 211.17 254.813 211.103 255.758 211.338C256.712 211.539 257.576 212.041 258.224 212.77C258.692 213.341 258.806 213.835 258.604 214.025Z" fill="#263238"/>
<path d="M216.72 218.932C216.517 218.792 208.462 214.571 206.995 223.382C205.528 232.194 214.658 231.851 214.709 231.598C214.76 231.344 216.72 218.932 216.72 218.932Z" fill="#FFBE9D"/>
<path d="M212.593 227.807C212.593 227.807 212.429 227.895 212.151 227.972C211.76 228.065 211.349 228.006 211 227.807C210.488 227.354 210.107 226.771 209.898 226.119C209.688 225.468 209.659 224.772 209.811 224.105C209.912 223.343 210.185 222.615 210.608 221.975C210.727 221.712 210.908 221.481 211.135 221.303C211.361 221.124 211.627 221.002 211.91 220.948C212.095 220.932 212.28 220.982 212.432 221.088C212.585 221.195 212.695 221.351 212.745 221.531C212.821 221.784 212.745 221.962 212.745 221.975C212.745 221.987 212.96 221.861 212.947 221.493C212.934 221.267 212.845 221.053 212.694 220.884C212.592 220.771 212.467 220.679 212.328 220.616C212.189 220.553 212.038 220.519 211.885 220.517C211.514 220.527 211.152 220.633 210.833 220.824C210.514 221.015 210.249 221.284 210.064 221.607C209.561 222.309 209.236 223.122 209.115 223.978C208.875 225.765 209.507 227.578 210.722 228.149C210.946 228.258 211.193 228.315 211.442 228.315C211.692 228.315 211.938 228.258 212.163 228.149C212.543 228.022 212.618 227.832 212.593 227.807Z" fill="#EB996E"/>
<path d="M265.427 212.073C262.455 212.233 259.488 211.685 256.768 210.473C254.049 209.261 251.655 207.419 249.784 205.1C247.255 201.829 245.573 197.556 241.918 195.578C240.659 194.957 239.291 194.593 237.89 194.506C236.49 194.419 235.087 194.611 233.762 195.071C231.123 196.017 228.705 197.492 226.655 199.407C227.818 206.406 224.72 213.353 221.697 219.693C221.437 220.44 220.934 221.079 220.269 221.506C219.08 222.101 217.664 221.163 216.943 220.035C215.933 218.143 215.493 215.998 215.678 213.86C215.705 208.99 216.694 204.172 218.587 199.686C220.509 195.187 223.705 191.351 227.78 188.656C233.006 185.456 239.267 184.415 245.244 185.752C251.187 187.138 256.544 190.363 260.558 194.97C262.514 197.011 263.935 199.507 264.693 202.234" fill="#263238"/>
</svg>
