<svg width="136" height="41" viewBox="0 0 136 41" fill="none" xmlns="http://www.w3.org/2000/svg">
<path fill-rule="evenodd" clip-rule="evenodd" d="M78.3685 15.8369L78.3438 15.8659L78.2319 15.7489L78.3685 15.8369ZM78.3438 15.8659C77.7549 16.5504 76.9889 16.8926 76.0457 16.8926C75.3169 16.8926 74.7248 16.6727 74.2238 16.1888C73.7684 15.7489 73.4951 15.133 73.4951 14.4291C73.4951 13.6813 73.7228 13.0654 74.1783 12.6255C74.6337 12.1856 75.2714 11.9656 76.0001 11.9656C76.3645 11.9656 76.7289 12.0536 77.0932 12.1856C77.4576 12.3615 77.7764 12.5815 78.0042 12.8454L79.2795 11.7456C78.9606 11.2617 78.5052 10.9098 77.9131 10.6459C77.321 10.3819 76.6378 10.2059 75.8635 10.2059C74.5882 10.2059 73.5406 10.6019 72.7208 11.3937C71.901 12.1856 71.491 13.1974 71.491 14.3851C71.491 15.6609 71.901 16.6727 72.6752 17.4205C73.4495 18.1684 74.4971 18.5643 75.7724 18.5643C76.5011 18.5643 77.2299 18.4323 77.822 18.1244C78.4596 17.8165 78.9606 17.4205 79.325 16.8926L78.3438 15.8659ZM61.4254 14.473C61.4254 15.6608 61.8353 16.6726 62.7006 17.4644C63.5205 18.2563 64.568 18.6522 65.7522 18.6522C66.9364 18.6522 67.984 18.2563 68.8038 17.4644C69.6237 16.6726 70.0336 15.6608 70.0336 14.473C70.0336 13.2853 69.6237 12.2735 68.8038 11.4816C67.984 10.6898 66.9364 10.2938 65.7522 10.2938C64.5225 10.2938 63.5205 10.6898 62.7006 11.5256C61.8808 12.3175 61.4709 13.3293 61.4709 14.517L61.4254 14.473ZM52.9993 19.8839H51.2686V16.8485H52.1795C52.7716 15.6607 53.0449 13.8571 53.0449 11.3936V10.4258H59.148V16.8485H60.1045V19.8839H58.3738V18.5202H52.9993V19.8839ZM57.2807 12.0976H54.8212V12.1416V12.5815C54.7756 14.4291 54.5023 15.8809 54.0924 16.8487H57.2807V12.0976ZM64.0215 12.7136C63.566 13.1535 63.3383 13.7694 63.3383 14.4733L63.3838 14.4293C63.3838 15.1331 63.6116 15.749 64.067 16.1889C64.5225 16.6728 65.0691 16.8928 65.7522 16.8928C66.4354 16.8928 66.982 16.6728 67.4374 16.2329C67.8929 15.793 68.1206 15.2211 68.1206 14.4733C68.1206 13.7694 67.8474 13.1535 67.3919 12.7136C66.8909 12.2297 66.3443 12.0097 65.7067 12.0097C65.0691 12.0097 64.477 12.2737 64.0215 12.7136ZM83.1508 12.0974H80.4636V10.4258H87.7055V12.0974H85.0182V18.5202H83.1508V12.0974ZM95.3572 10.4256L93.4443 14.4288L90.8937 10.4256H88.6164L92.5333 16.3645C92.3512 16.6724 92.169 16.8484 91.9412 16.8484C91.7135 16.8484 91.5769 16.7604 91.4402 16.5404L90.256 17.5962C90.666 18.2121 91.2581 18.52 91.9412 18.52C92.4878 18.52 92.9433 18.3441 93.3076 18.0361C93.672 17.7282 93.9908 17.2443 94.3096 16.5844L97.3612 10.3816H95.4028L95.3572 10.4256ZM106.379 18.5202H104.512V12.0974H100.823V18.5202H98.9553V10.4258H106.379V18.5202ZM114.396 18.5202H116.263V10.4258H114.396V13.5931H110.661V10.4258H108.793V18.5202H110.661V15.2648H114.396V18.5202ZM119.542 17.4644C118.677 16.6726 118.267 15.6608 118.267 14.473L118.312 14.517C118.312 13.3293 118.722 12.3175 119.542 11.5256C120.362 10.6898 121.364 10.2938 122.594 10.2938C123.778 10.2938 124.826 10.6898 125.645 11.4816C126.465 12.2735 126.875 13.2853 126.875 14.473C126.875 15.6608 126.465 16.6726 125.645 17.4644C124.826 18.2563 123.778 18.6522 122.594 18.6522C121.41 18.6522 120.362 18.2563 119.542 17.4644ZM120.18 14.4733C120.18 13.7694 120.408 13.1535 120.863 12.7136C121.318 12.2737 121.911 12.0097 122.548 12.0097C123.186 12.0097 123.732 12.2297 124.233 12.7136C124.689 13.1535 124.962 13.7694 124.962 14.4733C124.962 15.2211 124.734 15.793 124.279 16.2329C123.823 16.6728 123.277 16.8928 122.594 16.8928C121.911 16.8928 121.364 16.6728 120.909 16.1889C120.453 15.749 120.225 15.1331 120.225 14.4293L120.18 14.4733ZM135.392 18.5202H128.879V10.4258H135.301V12.0974H130.747V13.5931H134.982V15.2208H130.747V16.8485H135.392V18.5202Z" fill="#424249"/>
<path fill-rule="evenodd" clip-rule="evenodd" d="M87.9717 26.5708C87.9717 27.771 88.3816 28.7935 89.247 29.5937C90.0668 30.3939 91.1143 30.7939 92.2985 30.7939C93.4827 30.7939 94.5303 30.3939 95.3501 29.5937C96.1699 28.7935 96.5798 27.771 96.5798 26.5708C96.5798 25.3705 96.1699 24.348 95.3501 23.5479C94.5303 22.7477 93.4827 22.3476 92.2985 22.3476C91.0688 22.3476 90.0668 22.7477 89.247 23.5923C88.4272 24.3925 88.0172 25.415 88.0172 26.6152L87.9717 26.5708ZM63.6959 28.0378V30.5718H61.8285V22.3921H65.29C65.9732 22.3921 66.5197 22.481 67.0207 22.6589C67.4762 22.8367 67.8405 23.0589 68.1138 23.3257C68.3871 23.5924 68.5693 23.9036 68.6604 24.2148C68.797 24.5259 68.8425 24.8816 68.8425 25.2372C68.8425 26.0374 68.5693 26.7042 67.9772 27.2377C67.4306 27.7711 66.5197 28.0378 65.29 28.0378H63.6959ZM59.4146 30.6163H57.5472V24.1259H53.858V30.6163H51.9907V22.4367H59.4146V30.6163ZM65.381 24.1257C66.4286 24.1257 66.9751 24.4813 66.9751 25.237C66.9751 25.9927 66.4286 26.3484 65.3355 26.3484H63.7414V24.1257H65.381ZM70.9832 30.6163H69.0703L72.7595 22.4367H74.1258L77.815 30.6163H75.8566L75.1734 29.1048H71.6664L70.9832 30.6163ZM73.3971 25.1482L74.4902 27.5932H72.304L73.3971 25.1482ZM83.0528 30.616H79.4091L79.3636 30.6605V22.4808H83.0983C85.0568 22.4808 86.0132 23.1921 86.0132 24.5702C86.0132 25.2815 85.74 25.8594 85.1934 26.3039C85.9221 26.6596 86.2865 27.2819 86.2865 28.2155C86.2865 29.0156 86.0132 29.638 85.4211 30.0381C84.8291 30.4382 84.0548 30.616 83.0528 30.616ZM82.9617 27.2822C83.4627 27.2822 83.827 27.3267 84.0548 27.46C84.2825 27.5934 84.3736 27.8157 84.3736 28.0824C84.3736 28.3936 84.2369 28.6158 84.0092 28.7492C83.7815 28.8826 83.3716 28.927 82.825 28.927H81.2309V27.2822H82.9161H82.9617ZM83.827 24.3479C83.6448 24.2146 83.326 24.1701 82.825 24.1701L82.8706 24.1257H81.2765V25.6371H83.0072C83.3716 25.6371 83.6448 25.5927 83.827 25.4593C84.0092 25.3704 84.1003 25.1926 84.1003 24.9703C84.1003 24.6591 84.0092 24.4813 83.827 24.3479ZM90.5678 24.7924C90.1123 25.2369 89.8846 25.8593 89.8846 26.5706L89.9301 26.5261C89.9301 27.2374 90.1579 27.8598 90.6133 28.3043C91.0688 28.7933 91.6153 29.0156 92.2985 29.0156C92.9817 29.0156 93.5283 28.7933 93.9837 28.3488C94.4392 27.9042 94.6669 27.3263 94.6669 26.5706C94.6669 25.8593 94.3936 25.2369 93.9382 24.7924C93.4372 24.3034 92.8906 24.0811 92.253 24.0811C91.6153 24.0811 91.0232 24.3479 90.5678 24.7924Z" fill="#424249"/>
<rect width="42.0619" height="41" rx="3" fill="url(#paint0_linear_5_2183)"/>
<mask id="mask0_5_2183" style="mask-type:alpha" maskUnits="userSpaceOnUse" x="0" y="0" width="43" height="41">
<rect width="42.0619" height="41" rx="3" fill="url(#paint1_linear_5_2183)"/>
</mask>
<g mask="url(#mask0_5_2183)">
<path opacity="0.16" fill-rule="evenodd" clip-rule="evenodd" d="M10.4703 30.7245L20.975 40.9999H42.0619V24.3466L27.5748 10.2059H14.4643V23.7379L16.5597 25.4901H10.4703V30.7245Z" fill="#144700"/>
</g>
<path fill-rule="evenodd" clip-rule="evenodd" d="M27.4568 10.1977V10.2063H27.4916V23.561H24.2442V13.3632H17.6372V23.561H14.3897V10.2063H14.4245V10.1977H27.4568ZM31.411 25.4064H31.411H28.1636H13.7178H10.4703V28.6637V30.618H13.7178V28.6637H28.1636V30.618H31.411V25.4064Z" fill="white"/>
<defs>
<linearGradient id="paint0_linear_5_2183" x1="0" y1="0" x2="0" y2="41" gradientUnits="userSpaceOnUse">
<stop stop-color="#70CF01"/>
<stop offset="1" stop-color="#2A8C06"/>
</linearGradient>
<linearGradient id="paint1_linear_5_2183" x1="0" y1="0" x2="0" y2="41" gradientUnits="userSpaceOnUse">
<stop stop-color="#70CF01"/>
<stop offset="1" stop-color="#2A8C06"/>
</linearGradient>
</defs>
</svg>
