<svg width="32" height="32" viewBox="0 0 32 32" fill="none" xmlns="http://www.w3.org/2000/svg">
<circle cx="16" cy="16" r="16" fill="url(#paint0_linear_5_2230)"/>
<path d="M23.6704 20.2341C23.6268 20.1028 23.3496 19.9094 22.8388 19.6543C22.7004 19.5738 22.5032 19.4646 22.2481 19.3259C21.9928 19.1873 21.761 19.0596 21.5532 18.9428C21.345 18.8261 21.1499 18.7131 20.9677 18.6038C20.9386 18.5819 20.8474 18.5182 20.6942 18.4122C20.5408 18.3064 20.4115 18.228 20.3055 18.1768C20.1998 18.126 20.0957 18.1004 19.9936 18.1004C19.8477 18.1004 19.6655 18.2044 19.4467 18.4122C19.2279 18.6202 19.0272 18.8462 18.8449 19.0908C18.6626 19.3353 18.4692 19.5612 18.2652 19.7692C18.0608 19.9772 17.8929 20.0811 17.7617 20.0811C17.6959 20.0811 17.6138 20.0627 17.5154 20.0265C17.417 19.99 17.3422 19.9588 17.2908 19.9336C17.2399 19.9079 17.1526 19.857 17.0285 19.7802C16.9041 19.7035 16.835 19.6616 16.8204 19.6543C15.821 19.0997 14.9638 18.465 14.2488 17.7503C13.534 17.0352 12.8992 16.1782 12.3447 15.1787C12.3375 15.1641 12.2954 15.0948 12.2189 14.9708C12.1422 14.8467 12.0911 14.7593 12.0656 14.7081C12.0401 14.6571 12.009 14.5823 11.9726 14.4838C11.9362 14.3854 11.9179 14.3033 11.9179 14.2376C11.9179 14.1064 12.0219 13.9385 12.2299 13.7342C12.4378 13.5301 12.664 13.3367 12.9083 13.1544C13.1528 12.9722 13.3788 12.7715 13.5868 12.5527C13.7947 12.3338 13.8986 12.1516 13.8986 12.0057C13.8986 11.9036 13.8731 11.7996 13.8221 11.6938C13.771 11.5878 13.6926 11.4585 13.5868 11.3053C13.4809 11.1521 13.4171 11.061 13.3952 11.0316C13.2858 10.8494 13.1729 10.6543 13.056 10.4463C12.9391 10.2385 12.8116 10.0067 12.6729 9.75144C12.5344 9.49626 12.425 9.29922 12.3447 9.16063C12.0895 8.65008 11.8962 8.37274 11.7648 8.32913C11.7137 8.30724 11.6371 8.2962 11.535 8.2962C11.3379 8.2962 11.0808 8.33261 10.7635 8.40567C10.4461 8.4786 10.1963 8.5551 10.0139 8.63547C9.64907 8.78859 9.26244 9.23357 8.85385 9.97025C8.48179 10.6558 8.29578 11.3344 8.29578 12.0055C8.29578 12.2023 8.30854 12.3938 8.33407 12.58C8.35959 12.766 8.40521 12.9757 8.47094 13.2092C8.53656 13.4426 8.58949 13.616 8.62951 13.7289C8.66956 13.8419 8.74434 14.0443 8.85381 14.3362C8.96313 14.6281 9.02886 14.8067 9.05075 14.8723C9.30606 15.5873 9.60883 16.2256 9.95896 16.7873C10.5351 17.721 11.3212 18.686 12.317 19.6818C13.3129 20.6775 14.2777 21.4636 15.2115 22.0399C15.7733 22.39 16.4118 22.6927 17.1267 22.9482C17.1924 22.97 17.371 23.0355 17.6627 23.1452C17.9546 23.2546 18.1571 23.3294 18.2701 23.3695C18.3831 23.4097 18.5565 23.4627 18.7898 23.5284C19.0235 23.5941 19.2331 23.6397 19.4191 23.6654C19.6052 23.6906 19.7968 23.7036 19.9936 23.7036C20.6647 23.7036 21.3434 23.5175 22.0291 23.1455C22.7658 22.7371 23.2106 22.3504 23.3639 21.9854C23.4444 21.8032 23.5207 21.5533 23.5937 21.2359C23.6668 20.9186 23.7032 20.6616 23.7032 20.4645C23.7034 20.3621 23.6924 20.2856 23.6704 20.2341Z" fill="#EEF6E8"/>
<defs>
<linearGradient id="paint0_linear_5_2230" x1="0" y1="0" x2="0" y2="32" gradientUnits="userSpaceOnUse">
<stop stop-color="#66BC01"/>
<stop offset="1" stop-color="#2F9C07"/>
</linearGradient>
</defs>
</svg>
